<svg xmlns="http://www.w3.org/2000/svg" viewBox="0 0 16.15 13.9"><defs><style>.cls-1{fill:#ccd4db;fill-rule:evenodd;}</style></defs><title>call iconAsset 1</title><g id="Layer_2" data-name="Layer 2"><g id="Layer_2-2" data-name="Layer 2"><path class="cls-1" d="M0,3.21A4.08,4.08,0,0,1,.65.9,2.35,2.35,0,0,1,1.41.19,1.32,1.32,0,0,1,2.57.09,3.64,3.64,0,0,1,3.91,1,11.19,11.19,0,0,1,5.43,2.91a.74.74,0,0,1,0,1c-.34.44-.67.88-1,1.31A1.25,1.25,0,0,0,4.17,6.5,5,5,0,0,0,5,7.78a9.18,9.18,0,0,0,2.9,2.27,2.54,2.54,0,0,0,1.51.34,1.69,1.69,0,0,0,.55-.18c.49-.26,1-.52,1.43-.82A1.37,1.37,0,0,1,13,9.33a11.58,11.58,0,0,1,2.33,1.46,2.84,2.84,0,0,1,.71.84.93.93,0,0,1-.15,1.14,3.09,3.09,0,0,1-1.49.86,6.45,6.45,0,0,1-3.35.1,16.15,16.15,0,0,1-5.59-2.34A13,13,0,0,1,.84,6.11,9.8,9.8,0,0,1,.08,3.9C0,3.64,0,3.37,0,3.21Z"/></g></g></svg>