<svg xmlns="http://www.w3.org/2000/svg" viewBox="0 0 18.93 18.93"><defs><style>.cls-1{fill:#ccd4db;}</style></defs><title>instagram iconAsset 4</title><g id="Layer_2" data-name="Layer 2"><g id="Layer_4" data-name="Layer 4"><path class="cls-1" d="M13,18.93H6A6,6,0,0,1,0,13V6A6,6,0,0,1,6,0h7a6,6,0,0,1,5.95,6v7A6,6,0,0,1,13,18.93ZM6,1.56A4.4,4.4,0,0,0,1.56,6v7A4.4,4.4,0,0,0,6,17.37h7A4.4,4.4,0,0,0,17.37,13V6A4.4,4.4,0,0,0,13,1.56Z"/><path class="cls-1" d="M9.47,13.74a4.28,4.28,0,1,1,4.27-4.27A4.28,4.28,0,0,1,9.47,13.74Zm0-7a2.72,2.72,0,1,0,2.71,2.72A2.72,2.72,0,0,0,9.47,6.75Z"/><path class="cls-1" d="M15.29,4.44a1.17,1.17,0,1,1-1.17-1.16A1.16,1.16,0,0,1,15.29,4.44Z"/></g></g></svg>